<?xml version="1.0" standalone="no"?>
<!DOCTYPE svg PUBLIC "-//W3C//DTD SVG 20010904//EN"
 "http://www.w3.org/TR/2001/REC-SVG-20010904/DTD/svg10.dtd">
<svg version="1.0" xmlns="http://www.w3.org/2000/svg"
 width="260.000000pt" height="260.000000pt" viewBox="0 0 260.000000 260.000000"
 preserveAspectRatio="xMidYMid meet">
<metadata>
Created by potrace 1.14, written by Peter Selinger 2001-2017
</metadata>
<g transform="translate(0.000000,260.000000) scale(0.100000,-0.100000)"
fill="#000000" stroke="none">
<path d="M1224 2569 c-5 -8 -3 -9 6 -4 9 5 11 4 6 -4 -4 -6 -13 -8 -19 -4 -20
12 -37 12 -37 0 0 -8 -3 -7 -9 2 -5 8 -11 9 -15 3 -4 -6 -15 -9 -26 -7 -11 2
-20 0 -20 -4 0 -5 -12 -7 -26 -5 -20 2 -24 -1 -20 -14 6 -16 5 -16 -7 0 -9 11
-18 14 -28 7 -8 -5 -24 -9 -37 -9 -13 0 -21 -4 -18 -8 3 -5 -1 -9 -9 -9 -8 0
-15 5 -15 11 0 6 -4 5 -9 -3 -5 -7 -20 -13 -35 -13 -14 0 -24 -4 -21 -8 3 -4
-9 -10 -26 -14 -19 -4 -28 -10 -23 -17 5 -8 2 -9 -12 -1 -14 8 -21 6 -32 -6
-10 -13 -12 -13 -7 -2 5 12 4 12 -7 -1 -7 -9 -17 -17 -23 -18 -5 -2 -9 -7 -7
-12 1 -6 -7 -5 -19 2 -13 6 -19 7 -15 1 3 -6 2 -13 -4 -17 -5 -3 -10 -1 -10 5
0 6 -12 -2 -26 -17 -14 -15 -22 -21 -18 -13 6 12 5 13 -8 3 -8 -7 -18 -9 -22
-5 -4 4 -6 0 -4 -8 2 -8 -3 -14 -9 -12 -7 1 -13 -2 -13 -8 0 -5 -6 -10 -14
-10 -8 0 -21 -9 -29 -20 -8 -11 -17 -17 -20 -13 -4 3 -7 0 -7 -7 0 -7 -3 -10
-7 -7 -3 4 -13 -2 -20 -13 -8 -11 -19 -17 -25 -14 -7 5 -8 2 -4 -5 5 -8 0 -14
-13 -18 -11 -3 -19 -9 -16 -13 3 -5 -4 -11 -15 -15 -11 -4 -18 -11 -15 -16 6
-9 -9 -14 -30 -9 -5 1 -7 -2 -3 -5 10 -10 -11 -47 -23 -40 -5 4 -9 0 -9 -8 0
-17 -46 -57 -56 -49 -5 4 -2 -2 6 -12 14 -18 13 -19 -2 -13 -12 4 -18 2 -18
-8 0 -8 -5 -15 -11 -15 -5 0 -8 -4 -5 -9 3 -5 -1 -12 -9 -15 -8 -3 -14 -10
-13 -15 2 -5 -6 -17 -17 -26 -11 -9 -14 -13 -6 -10 9 5 8 -1 -4 -19 -9 -14
-21 -23 -26 -20 -5 3 -6 -3 -2 -12 4 -12 3 -15 -5 -10 -8 5 -10 2 -6 -8 3 -9
1 -16 -6 -16 -6 0 -8 -4 -5 -10 3 -5 1 -10 -5 -10 -7 0 -10 -6 -7 -14 3 -8 -1
-17 -9 -20 -8 -3 -14 -15 -14 -26 0 -11 -5 -20 -11 -20 -8 0 -7 -5 1 -16 11
-12 11 -15 -1 -12 -9 2 -14 -5 -13 -19 1 -13 -3 -20 -7 -17 -5 3 -9 -4 -9 -16
0 -11 -5 -29 -10 -40 -6 -11 -15 -29 -20 -40 -7 -13 -7 -20 0 -20 5 0 10 -5
10 -11 0 -5 -4 -7 -10 -4 -6 3 -7 -1 -4 -9 4 -10 1 -16 -7 -16 -11 0 -11 -3 1
-10 12 -7 12 -10 1 -10 -7 0 -11 -6 -7 -15 3 -8 0 -15 -7 -15 -8 0 -6 -4 3
-10 8 -5 10 -10 4 -10 -7 0 -15 -7 -18 -16 -3 -8 -2 -12 4 -9 6 3 10 1 10 -4
0 -6 -4 -11 -9 -11 -4 0 -6 -11 -3 -25 3 -16 -2 -33 -14 -47 -19 -21 -19 -21
3 -10 20 11 21 10 13 -21 -5 -17 -8 -41 -7 -52 1 -13 -3 -19 -13 -17 -13 2
-13 1 0 -10 17 -14 20 -74 6 -97 -6 -9 -5 -12 1 -8 6 4 10 -9 11 -30 1 -19 6
-41 12 -48 8 -9 8 -15 1 -20 -7 -4 -5 -15 7 -33 9 -14 11 -23 4 -19 -6 5 -12
4 -12 -2 0 -6 6 -11 13 -11 8 0 7 -4 -3 -10 -13 -9 -13 -10 0 -10 9 0 17 -10
18 -22 4 -50 10 -73 19 -71 6 1 8 -8 6 -21 -3 -13 0 -27 6 -30 5 -4 7 -14 4
-23 -4 -11 -3 -14 5 -9 13 8 19 -4 25 -49 3 -17 10 -29 16 -27 7 1 10 -2 6 -8
-3 -6 1 -17 9 -26 9 -9 14 -19 11 -23 -2 -5 5 -18 16 -30 11 -12 17 -26 14
-31 -3 -5 6 -17 20 -26 14 -9 25 -25 25 -36 0 -14 5 -18 16 -14 8 3 12 2 9 -4
-3 -6 -1 -10 5 -10 6 0 8 -4 5 -10 -3 -5 -1 -10 6 -10 7 0 9 -3 6 -6 -3 -4 7
-19 23 -34 16 -15 26 -30 23 -34 -3 -3 1 -6 10 -6 15 0 22 -11 18 -33 0 -4 5
-6 11 -5 7 2 12 -3 10 -10 -1 -8 2 -11 8 -7 5 3 13 -1 16 -9 3 -9 13 -16 21
-16 8 0 11 -4 8 -10 -3 -5 -1 -10 5 -10 6 0 23 -12 37 -28 14 -15 19 -18 12
-7 -11 15 -7 14 17 -5 20 -16 27 -28 20 -32 -6 -5 -1 -8 12 -8 12 0 22 -4 22
-10 0 -5 7 -10 16 -10 8 0 13 -4 9 -9 -3 -6 4 -8 15 -6 13 2 20 -1 20 -11 0
-13 12 -18 33 -15 4 0 7 -4 7 -10 0 -5 4 -7 10 -4 5 3 10 1 10 -5 0 -6 4 -8
10 -5 5 3 10 1 10 -4 0 -6 9 -11 21 -11 11 0 17 -5 14 -10 -3 -6 3 -10 14 -10
12 0 21 -6 21 -12 0 -10 2 -10 8 -1 5 8 11 8 24 -1 10 -7 15 -16 12 -19 -3 -3
6 -4 21 -3 16 2 29 -2 32 -11 5 -12 7 -12 14 -1 7 10 9 10 9 1 0 -7 11 -13 25
-13 14 0 25 -6 25 -12 0 -9 4 -8 10 2 8 12 10 12 10 1 0 -8 3 -11 7 -8 3 4 17
0 31 -9 13 -9 21 -11 18 -5 -4 6 -3 11 3 11 5 0 12 -6 15 -12 5 -10 7 -10 12
1 4 8 9 10 13 3 3 -6 20 -13 36 -15 17 -2 29 -10 27 -16 -1 -7 2 -10 8 -6 6 3
8 10 5 15 -3 5 -1 12 5 15 6 4 10 3 9 -2 -3 -19 3 -21 32 -13 23 7 30 6 26 -3
-3 -8 4 -13 18 -13 13 0 21 4 19 8 -3 4 2 8 11 8 9 0 14 -3 11 -8 -2 -4 22 -7
54 -7 32 0 56 3 53 8 -2 4 -9 4 -15 1 -7 -4 -8 -2 -4 4 5 9 13 9 26 2 13 -7
21 -7 25 0 4 6 11 8 16 5 5 -4 9 -1 9 5 0 7 7 5 16 -5 12 -12 19 -13 30 -4 20
17 17 24 -3 8 -16 -13 -17 -12 -5 3 13 16 16 16 37 2 18 -11 25 -12 31 -3 5 8
3 9 -6 4 -8 -5 -11 -4 -7 3 8 11 25 11 44 -1 6 -4 15 -2 19 4 4 8 3 9 -4 5
-18 -11 -14 0 5 15 11 10 14 10 9 1 -10 -17 10 -15 42 5 26 17 26 17 13 0 -12
-15 -12 -17 3 -11 9 3 16 10 16 15 0 5 3 8 8 8 20 -3 32 2 26 12 -4 7 0 9 13
5 12 -4 25 0 33 9 9 11 16 12 25 5 9 -7 16 -6 25 5 7 8 19 15 26 15 8 0 14 5
14 11 0 5 5 7 10 4 6 -3 10 1 10 11 0 14 2 15 17 3 15 -12 16 -12 10 3 -4 13
-2 15 10 11 9 -4 19 1 25 11 5 9 13 14 19 11 5 -4 9 -1 9 5 0 7 7 10 15 6 8
-3 14 -2 12 2 -1 4 3 9 8 11 6 2 15 11 22 20 7 9 13 12 13 7 0 -6 7 -1 15 10
8 10 15 16 15 12 0 -5 8 0 18 10 11 9 17 21 14 26 -3 5 0 6 5 3 6 -4 16 0 23
8 7 8 16 12 21 9 5 -3 6 3 2 12 -4 11 -3 15 5 10 6 -3 16 3 22 14 6 11 16 17
22 14 6 -4 8 -3 5 3 -4 6 3 19 16 29 21 19 21 19 7 -1 -14 -18 -14 -19 2 -6
10 7 16 17 13 21 -6 10 20 32 28 24 4 -4 5 3 2 14 -2 13 1 21 8 19 7 -1 11 3
10 10 -2 8 4 10 14 6 11 -4 14 -3 9 5 -4 7 -3 12 3 12 6 0 13 11 17 25 3 14
10 22 15 19 5 -3 9 0 9 5 0 6 8 20 18 31 9 11 20 30 23 43 3 12 12 21 19 19
11 -3 11 0 0 12 -10 13 -10 16 4 16 10 0 14 4 11 10 -3 5 -1 10 6 10 7 0 9 3
6 7 -4 3 -1 13 5 21 7 8 13 22 13 31 0 9 5 15 11 14 6 -1 10 9 8 22 -1 14 2
25 7 25 5 0 9 9 9 19 0 11 5 23 10 26 6 4 8 11 5 16 -4 5 -1 9 4 9 6 0 10 3
10 8 -4 21 2 32 14 26 6 -4 3 3 -8 15 -14 16 -15 22 -5 19 8 -2 14 3 12 9 -1
7 4 13 10 13 9 0 8 4 -2 10 -8 5 -10 10 -4 10 11 0 13 7 16 60 1 17 6 30 12
30 6 0 4 5 -4 10 -10 6 -11 10 -2 10 6 0 12 5 12 11 0 5 -6 7 -12 3 -10 -6
-10 -4 0 8 7 9 15 25 17 36 3 16 0 19 -13 15 -13 -4 -12 -2 3 10 15 13 16 16
5 17 -10 0 -11 3 -4 8 14 9 13 104 -1 114 -6 5 -5 8 3 8 6 0 12 9 12 21 0 13
-4 18 -12 13 -10 -6 -10 -5 -1 7 13 16 7 54 -11 78 -9 12 -8 13 3 6 11 -6 12
-5 5 6 -14 23 -15 51 -2 44 7 -4 5 0 -5 8 -14 11 -15 16 -5 20 9 4 10 6 1 6
-7 1 -10 8 -6 18 4 11 3 14 -5 9 -7 -4 -12 -3 -12 3 0 5 5 13 10 16 6 4 4 12
-5 22 -9 8 -13 23 -10 33 3 9 -1 23 -10 30 -8 7 -12 16 -9 21 3 5 1 9 -5 9 -5
0 -8 12 -6 26 1 15 -3 28 -11 31 -8 3 -11 9 -8 14 3 5 0 9 -6 9 -6 0 -8 5 -5
10 3 6 1 10 -5 10 -6 0 -8 4 -5 10 7 11 -25 70 -38 70 -4 0 -6 4 -2 9 3 6 -3
14 -12 20 -11 6 -13 11 -5 11 10 0 9 4 -2 16 -9 8 -13 20 -10 26 4 7 2 8 -4 4
-8 -5 -12 0 -12 13 0 11 -4 23 -10 26 -6 3 -8 -2 -5 -12 3 -10 -3 -1 -12 20
-10 21 -22 35 -26 31 -4 -4 -7 -2 -7 5 0 6 -12 23 -27 37 -21 19 -23 23 -7 19
18 -6 18 -6 -1 6 -31 20 -64 56 -58 63 4 3 -1 6 -10 6 -9 0 -17 7 -17 17 0 9
-3 14 -6 10 -7 -7 -44 29 -44 44 0 8 -5 7 -16 -1 -8 -8 -14 -9 -13 -4 3 18 -1
37 -7 31 -6 -6 -17 2 -59 40 -16 16 -25 19 -28 10 -3 -7 -6 -4 -6 6 -1 10 -5
15 -11 12 -5 -3 -10 1 -10 9 0 10 -7 13 -20 11 -11 -2 -18 0 -15 6 4 5 -1 9
-10 9 -9 0 -13 4 -10 10 4 6 -1 7 -11 3 -12 -4 -15 -3 -10 5 5 8 2 10 -8 6 -9
-3 -16 -1 -16 6 0 6 -4 9 -9 6 -5 -3 -11 1 -15 9 -3 8 -12 12 -19 9 -8 -3 -17
2 -20 10 -4 9 -13 13 -21 10 -8 -3 -17 -1 -21 5 -9 15 -28 14 -19 -1 4 -7 -3
-3 -15 10 -18 18 -26 21 -37 11 -12 -10 -13 -9 -8 5 5 13 0 16 -26 16 -17 0
-29 4 -26 8 3 5 -1 9 -9 9 -8 0 -12 -4 -10 -8 7 -10 -20 -5 -36 7 -8 5 -26 9
-41 8 -24 -1 -26 1 -15 15 9 12 6 12 -17 -3 -16 -10 -25 -13 -22 -7 7 11 -5
15 -31 12 -7 -1 -13 3 -13 9 0 7 -6 8 -19 1 -10 -6 -22 -7 -26 -3 -10 10 -29
9 -37 -3 -5 -6 -8 -6 -8 3 0 6 -5 12 -11 12 -5 0 -7 -6 -3 -12 6 -10 5 -10 -7
-2 -8 7 -32 12 -55 11 -22 0 -45 3 -51 6 -7 4 -15 2 -19 -4z m1344 -1174 c-3
-3 -9 2 -12 12 -6 14 -5 15 5 6 7 -7 10 -15 7 -18z"/>
</g>
</svg>
